<svg id="Capa_1" enable-background="new 0 0 512 512" height="512" viewBox="0 0 512 512" width="512" xmlns="http://www.w3.org/2000/svg"><g><path d="m256 471.538c-5.043 0-10.046-.173-15.002-.514-25.032-1.721-48.889-7.716-70.846-17.261-8.314-.27-12.212-3.624-15.754-7.627-67.807-36.311-113.931-107.836-113.931-190.133 0-30.512 6.34-59.544 17.775-85.849-2.408-13.789.23-16.846 7.627-15.754 33.927-63.358 98.597-107.785 174.072-113.344 5.302-.39 19.645 2.29 19.645 2.29 89.779 1.491 191.828 92.056 191.828 211.093 0 119.037-113.285 218.317-195.414 217.099z" fill="#71ddf9"/><path d="m471.531 256.003c0 59.516-24.122 113.402-63.126 152.406-14.928 14.928-32.035 27.676-50.804 37.726-1.336 6.268-7.433 8.82-15.754 7.627-26.305 11.434-55.336 17.774-85.847 17.774-5.04 0-10.051-.17-15.001-.52 53.535-3.67 101.7-26.903 137.403-62.607 39.004-39.004 63.126-92.89 63.126-152.406s-24.122-113.403-63.126-152.407c-35.704-35.704-83.868-58.936-137.403-62.606 4.95-.35 9.961-.52 15.001-.52 59.516 0 113.401 24.123 152.405 63.127 14.928 14.928 27.676 32.035 37.726 50.804 6.602 3.493 8.609 7.335 7.626 15.754 11.434 26.305 17.774 55.336 17.774 85.848z" fill="#23c7f7"/><path d="m256 411.519c-85.889 0-155.515-69.627-155.515-155.517 0-85.889 69.626-155.517 155.515-155.517 85.889 0 155.515 69.627 155.515 155.517 0 85.89-69.626 155.517-155.515 155.517z" fill="#23c7f7"/><path d="m64.472 256.283s-24.537 23.687-39.012 25.705c-8.965-5.188-14.996-14.883-14.996-25.986 0-11.103 6.031-20.798 14.996-25.986 4.414-2.554 39.012 9.697 39.012 26.267z" fill="#ccf49f"/><path d="m70.472 256.003c0 16.572-13.431 30.003-30.003 30.003-5.471 0-10.591-1.46-15.001-4.03 8.971-5.171 15.001-14.862 15.001-25.973 0-8.281-3.36-15.782-8.791-21.212-1.85-1.85-3.93-3.46-6.211-4.761 4.41-2.57 9.531-4.03 15.001-4.03 8.291 0 15.792 3.36 21.212 8.791 5.432 5.43 8.792 12.931 8.792 21.212z" fill="#b3e59f"/><path d="m259.465 204.695 3.683 17.011c2.943 13.59 13.558 24.206 27.148 27.148l17.011 3.683c3.727.807 3.727 6.123 0 6.93l-17.011 3.683c-13.59 2.943-24.205 13.558-27.148 27.148l-3.683 17.011c-.807 3.727-6.123 3.727-6.93 0l-3.683-17.011c-2.942-13.59-13.558-24.206-27.148-27.148l-17.011-3.683c-3.727-.807-3.727-6.123 0-6.93l17.011-3.683c13.59-2.943 24.205-13.558 27.148-27.148l3.683-17.011c.807-3.727 6.123-3.727 6.93 0z" fill="#fff"/><path d="m489.367 253.981c0 16.57-28.429 30.562-32.844 28.006-8.963-5.189-14.992-14.882-14.992-25.984 0-11.102 6.03-20.795 14.993-25.984 6.93.686 11.208 2.176 16.677 2.176z" fill="#c3aff0"/><path d="m240.992 66.453c-8.965-5.189-14.995-14.883-14.995-25.986 0-11.102 6.03-20.796 14.993-25.985 4.415-2.556 35.012 9.414 35.012 25.985 0 16.57-23.334 25.392-35.01 25.986z" fill="#ffe07d"/><path d="m501.534 256.003c0 16.572-13.431 30.003-30.003 30.003-5.47 0-10.591-1.46-15.001-4.03 8.971-5.171 15.001-14.862 15.001-25.973 0-8.281-3.36-15.782-8.791-21.212-1.85-1.85-3.93-3.46-6.211-4.761 4.41-2.57 9.531-4.03 15.001-4.03 8.291 0 15.792 3.36 21.212 8.791 5.432 5.43 8.792 12.931 8.792 21.212z" fill="#a69ded"/><path d="m286.003 40.469c0 8.291-3.36 15.792-8.791 21.212-5.431 5.431-12.931 8.791-21.212 8.791-5.461 0-10.591-1.46-15.001-4.03 2.28-1.31 4.36-2.91 6.211-4.76 5.43-5.421 8.79-12.922 8.79-21.213s-3.36-15.792-8.791-21.212c-1.85-1.85-3.93-3.45-6.211-4.761 4.41-2.57 9.541-4.03 15.001-4.03 8.281 0 15.782 3.36 21.212 8.791 5.432 5.421 8.792 12.922 8.792 21.212z" fill="#ffd064"/><path d="m258.382 496.777c-5.468 0-17.392.745-17.392.745-8.963-5.189-14.993-14.883-14.993-25.985 0-11.103 6.031-20.797 14.995-25.986 0 0 10.91.755 16.377.755 0 0 20.792 8.661 20.792 25.231z" fill="#fc8d94"/><path d="m286.003 471.536c0 8.291-3.36 15.792-8.791 21.212-5.431 5.431-12.931 8.791-21.212 8.791-5.461 0-10.591-1.46-15.001-4.03 2.28-1.31 4.36-2.91 6.211-4.761 5.431-5.421 8.791-12.921 8.791-21.212s-3.36-15.792-8.791-21.212c-1.85-1.85-3.93-3.45-6.211-4.76 4.41-2.57 9.541-4.03 15.001-4.03 8.281 0 15.782 3.36 21.212 8.791 5.431 5.419 8.791 12.92 8.791 21.211z" fill="#fa6f7c"/><path d="m502.384 502.389c-6.761 6.761-16.212 9.611-27.313 9.611-29.603 0-71.017-20.242-104.93-40.424-9.221-5.481-18.672-11.441-28.293-17.812 5.36-2.33 10.621-4.881 15.752-7.631 6.841 4.42 13.591 8.611 20.212 12.551 28.843 17.162 54.655 29.173 74.647 34.724 19.302 5.361 32.893 4.801 39.314-1.63 6.431-6.421 6.991-20.012 1.63-39.314-5.55-19.992-17.562-45.805-34.723-74.648-3.94-6.621-8.131-13.371-12.551-20.212-34.183-52.976-81.878-111.652-130.983-160.747-49.095-49.105-107.77-96.8-160.746-130.984-6.841-4.421-13.591-8.611-20.212-12.551-28.843-17.162-54.655-29.173-74.647-34.724-8.751-2.43-16.342-3.64-22.612-3.64-7.551 0-13.201 1.76-16.702 5.271-6.431 6.421-6.991 20.012-1.63 39.314 5.551 19.992 17.562 45.805 34.723 74.648 3.94 6.621 8.131 13.371 12.551 20.212-2.75 5.131-5.301 10.391-7.631 15.752-6.371-9.621-12.331-19.072-17.812-28.293-27.752-46.637-55.624-107.443-30.812-132.246 24.802-24.813 85.608 3.06 132.243 30.813 9.221 5.481 18.672 11.441 28.293 17.812 51.805 34.324 108.151 80.539 155.605 128.004 47.465 47.455 93.679 103.801 128.002 155.607 6.371 9.621 12.331 19.072 17.812 28.293 27.753 46.635 55.625 107.441 30.813 132.244z" fill="#5d5360"/><path d="m471.571 141.86c-5.48 9.221-11.441 18.672-17.812 28.293-2.33-5.361-4.88-10.621-7.631-15.752 4.42-6.841 8.611-13.591 12.551-20.212 17.162-28.843 29.173-54.656 34.723-74.648 5.361-19.302 4.8-32.894-1.63-39.314-3.5-3.51-9.151-5.271-16.712-5.271-6.261 0-13.841 1.21-22.602 3.64-19.992 5.551-45.804 17.562-74.647 34.724-6.621 3.94-13.371 8.131-20.212 12.551-52.975 34.184-111.651 81.879-160.746 130.984-49.105 49.095-96.799 107.772-130.983 160.747-4.42 6.841-8.611 13.591-12.551 20.212-17.162 28.843-29.173 54.656-34.723 74.648-5.361 19.302-4.8 32.893 1.63 39.314 6.421 6.431 20.012 6.991 39.314 1.63 19.992-5.551 45.804-17.562 74.647-34.724 6.621-3.94 13.371-8.131 20.212-12.551 5.131 2.75 10.391 5.301 15.752 7.631-9.621 6.371-19.072 12.331-28.293 17.812-33.912 20.184-75.326 40.426-104.929 40.426-11.111 0-20.552-2.84-27.313-9.611-24.812-24.803 3.06-85.609 30.813-132.244 5.481-9.221 11.441-18.672 17.812-28.293 34.323-51.806 80.538-108.152 128.002-155.607 47.455-47.465 103.8-93.68 155.605-128.004 9.621-6.371 19.072-12.331 28.293-17.812 46.635-27.753 107.44-55.616 132.243-30.813 24.812 24.803-3.06 85.609-30.813 132.244z" fill="#6f6571"/></g></svg>